2020-02-07 14:26:25,353 - Transcoder_Logger - ERROR - Encoding failed. ffmpeg/avlib returned error code: 1

Command:['ffmpeg', '-y', '-f', 'wav', '-i', '/tmp/tmppg9iuapm', '-f', 'wave', '/tmp/tmp8q4h1fz1']

Output from ffmpeg/avlib:

b"ffmpeg version 4.1.4-1~deb10u1 Copyright (c) 2000-2019 the FFmpeg developers\n  built with gcc 8 (Debian 8.3.0-6)\n  configuration: --prefix=/usr --extra-version='1~deb10u1' --toolchain=hardened --libdir=/usr/lib/x86_64-linux-gnu --incdir=/usr/include/x86_64-linux-gnu --arch=amd64 --enable-gpl --disable-stripping --enable-avresample --disable-filter=resample --enable-avisynth --enable-gnutls --enable-ladspa --enable-libaom --enable-libass --enable-libbluray --enable-libbs2b --enable-libcaca --enable-libcdio --enable-libcodec2 --enable-libflite --enable-libfontconfig --enable-libfreetype --enable-libfribidi --enable-libgme --enable-libgsm --enable-libjack --enable-libmp3lame --enable-libmysofa --enable-libopenjpeg --enable-libopenmpt --enable-libopus --enable-libpulse --enable-librsvg --enable-librubberband --enable-libshine --enable-libsnappy --enable-libsoxr --enable-libspeex --enable-libssh --enable-libtheora --enable-libtwolame --enable-libvidstab --enable-libvorbis --enable-libvpx --enable-libwavpack --enable-libwebp --enable-libx265 --enable-libxml2 --enable-libxvid --enable-libzmq --enable-libzvbi --enable-lv2 --enable-omx --enable-openal --enable-opengl --enable-sdl2 --enable-libdc1394 --enable-libdrm --enable-libiec61883 --enable-chromaprint --enable-frei0r --enable-libx264 --enable-shared\n  WARNING: library configuration mismatch\n  avcodec     configuration: --prefix=/usr --extra-version='1~deb10u1' --toolchain=hardened --libdir=/usr/lib/x86_64-linux-gnu --incdir=/usr/include/x86_64-linux-gnu --arch=amd64 --enable-gpl --disable-stripping --enable-avresample --disable-filter=resample --enable-avisynth --enable-gnutls --enable-ladspa --enable-libaom --enable-libass --enable-libbluray --enable-libbs2b --enable-libcaca --enable-libcdio --enable-libcodec2 --enable-libflite --enable-libfontconfig --enable-libfreetype --enable-libfribidi --enable-libgme --enable-libgsm --enable-libjack --enable-libmp3lame --enable-libmysofa --enable-libopenjpeg --enable-libopenmpt --enable-libopus --enable-libpulse --enable-librsvg --enable-librubberband --enable-libshine --enable-libsnappy --enable-libsoxr --enable-libspeex --enable-libssh --enable-libtheora --enable-libtwolame --enable-libvidstab --enable-libvorbis --enable-libvpx --enable-libwavpack --enable-libwebp --enable-libx265 --enable-libxml2 --enable-libxvid --enable-libzmq --enable-libzvbi --enable-lv2 --enable-omx --enable-openal --enable-opengl --enable-sdl2 --enable-libdc1394 --enable-libdrm --enable-libiec61883 --enable-chromaprint --enable-frei0r --enable-libx264 --enable-shared --enable-version3 --disable-doc --disable-programs --enable-liblensfun --enable-libopencore_amrnb --enable-libopencore_amrwb --enable-libtesseract --enable-libvo_amrwbenc\n  libavutil      56. 22.100 / 56. 22.100\n  libavcodec     58. 35.100 / 58. 35.100\n  libavformat    58. 20.100 / 58. 20.100\n  libavdevice    58.  5.100 / 58.  5.100\n  libavfilter     7. 40.101 /  7. 40.101\n  libavresample   4.  0.  0 /  4.  0.  0\n  libswscale      5.  3.100 /  5.  3.100\n  libswresample   3.  3.100 /  3.  3.100\n  libpostproc    55.  3.100 / 55.  3.100\nGuessed Channel Layout for Input Stream #0.0 : stereo\nInput #0, wav, from '/tmp/tmppg9iuapm':\n  Duration: 00:03:07.09, bitrate: 1411 kb/s\n    Stream #0:0: Audio: pcm_s16le ([1][0][0][0] / 0x0001), 44100 Hz, stereo, s16, 1411 kb/s\n[NULL @ 0x55bf189b3040] Requested output format 'wave' is not a suitable output format\n/tmp/tmp8q4h1fz1: Invalid argument\n"
Traceback (most recent call last):
  File "/app/service/core.py", line 31, in process_messages
    transcoded = transcode(file, output)
  File "/app/service/transcoder.py", line 21, in transcode
    audio.export(handle, format=format)
  File "/usr/local/lib/python3.7/site-packages/pydub/audio_segment.py", line 877, in export
    p.returncode, conversion_command, p_err))
pydub.exceptions.CouldntEncodeError: Encoding failed. ffmpeg/avlib returned error code: 1

Command:['ffmpeg', '-y', '-f', 'wav', '-i', '/tmp/tmppg9iuapm', '-f', 'wave', '/tmp/tmp8q4h1fz1']

Output from ffmpeg/avlib:

b"ffmpeg version 4.1.4-1~deb10u1 Copyright (c) 2000-2019 the FFmpeg developers\n  built with gcc 8 (Debian 8.3.0-6)\n  configuration: --prefix=/usr --extra-version='1~deb10u1' --toolchain=hardened --libdir=/usr/lib/x86_64-linux-gnu --incdir=/usr/include/x86_64-linux-gnu --arch=amd64 --enable-gpl --disable-stripping --enable-avresample --disable-filter=resample --enable-avisynth --enable-gnutls --enable-ladspa --enable-libaom --enable-libass --enable-libbluray --enable-libbs2b --enable-libcaca --enable-libcdio --enable-libcodec2 --enable-libflite --enable-libfontconfig --enable-libfreetype --enable-libfribidi --enable-libgme --enable-libgsm --enable-libjack --enable-libmp3lame --enable-libmysofa --enable-libopenjpeg --enable-libopenmpt --enable-libopus --enable-libpulse --enable-librsvg --enable-librubberband --enable-libshine --enable-libsnappy --enable-libsoxr --enable-libspeex --enable-libssh --enable-libtheora --enable-libtwolame --enable-libvidstab --enable-libvorbis --enable-libvpx --enable-libwavpack --enable-libwebp --enable-libx265 --enable-libxml2 --enable-libxvid --enable-libzmq --enable-libzvbi --enable-lv2 --enable-omx --enable-openal --enable-opengl --enable-sdl2 --enable-libdc1394 --enable-libdrm --enable-libiec61883 --enable-chromaprint --enable-frei0r --enable-libx264 --enable-shared\n  WARNING: library configuration mismatch\n  avcodec     configuration: --prefix=/usr --extra-version='1~deb10u1' --toolchain=hardened --libdir=/usr/lib/x86_64-linux-gnu --incdir=/usr/include/x86_64-linux-gnu --arch=amd64 --enable-gpl --disable-stripping --enable-avresample --disable-filter=resample --enable-avisynth --enable-gnutls --enable-ladspa --enable-libaom --enable-libass --enable-libbluray --enable-libbs2b --enable-libcaca --enable-libcdio --enable-libcodec2 --enable-libflite --enable-libfontconfig --enable-libfreetype --enable-libfribidi --enable-libgme --enable-libgsm --enable-libjack --enable-libmp3lame --enable-libmysofa --enable-libopenjpeg --enable-libopenmpt --enable-libopus --enable-libpulse --enable-librsvg --enable-librubberband --enable-libshine --enable-libsnappy --enable-libsoxr --enable-libspeex --enable-libssh --enable-libtheora --enable-libtwolame --enable-libvidstab --enable-libvorbis --enable-libvpx --enable-libwavpack --enable-libwebp --enable-libx265 --enable-libxml2 --enable-libxvid --enable-libzmq --enable-libzvbi --enable-lv2 --enable-omx --enable-openal --enable-opengl --enable-sdl2 --enable-libdc1394 --enable-libdrm --enable-libiec61883 --enable-chromaprint --enable-frei0r --enable-libx264 --enable-shared --enable-version3 --disable-doc --disable-programs --enable-liblensfun --enable-libopencore_amrnb --enable-libopencore_amrwb --enable-libtesseract --enable-libvo_amrwbenc\n  libavutil      56. 22.100 / 56. 22.100\n  libavcodec     58. 35.100 / 58. 35.100\n  libavformat    58. 20.100 / 58. 20.100\n  libavdevice    58.  5.100 / 58.  5.100\n  libavfilter     7. 40.101 /  7. 40.101\n  libavresample   4.  0.  0 /  4.  0.  0\n  libswscale      5.  3.100 /  5.  3.100\n  libswresample   3.  3.100 /  3.  3.100\n  libpostproc    55.  3.100 / 55.  3.100\nGuessed Channel Layout for Input Stream #0.0 : stereo\nInput #0, wav, from '/tmp/tmppg9iuapm':\n  Duration: 00:03:07.09, bitrate: 1411 kb/s\n    Stream #0:0: Audio: pcm_s16le ([1][0][0][0] / 0x0001), 44100 Hz, stereo, s16, 1411 kb/s\n[NULL @ 0x55bf189b3040] Requested output format 'wave' is not a suitable output format\n/tmp/tmp8q4h1fz1: Invalid argument\n"
